<svg xmlns="http://www.w3.org/2000/svg" style="display: none;">
  
    <symbol id="icon-twitter" viewBox="0 0 512 512">
      <path d="m481 117c-13 18-28 34-46 47 0 3 0 7 0 12 0 25-3 50-11 74-7 25-18 49-33 71-14 23-32 43-52 61-21 17-45 31-74 41-29 11-60 16-92 16-52 0-99-14-142-42 7 1 14 2 22 2 43 0 81-14 115-40-20 0-38-6-54-18-16-12-27-27-33-46 7 1 13 2 18 2 8 0 16-1 24-4-21-4-39-15-53-31-14-17-21-37-21-59l0-1c13 7 27 11 42 11-13-8-23-19-30-32-8-14-11-29-11-44 0-17 4-33 12-47 23 28 51 51 84 68 33 17 69 27 107 29-2-8-3-15-3-22 0-25 9-47 27-65 18-18 40-27 66-27 26 0 49 10 67 29 21-4 40-11 59-22-7 22-21 39-41 51 18-2 35-7 53-14z"/>
    </symbol>
  
    <symbol id="icon-facebook" viewBox="0 0 512 512">
      <path d="m384 3l0 76-45 0c-17 0-28 3-33 10-6 7-9 17-9 31l0 54 84 0-11 85-73 0 0 216-87 0 0-216-73 0 0-85 73 0 0-62c0-36 10-63 29-83 20-19 47-29 80-29 28 0 49 1 65 3z"/>
    </symbol>
  
    <symbol id="icon-pinterest" viewBox="0 0 512 512">
      <path d="m475 256c0 40-9 77-29 110-20 34-46 60-80 80-33 20-70 29-110 29-21 0-42-3-62-9 11-17 18-33 22-47 2-6 7-26 15-60 4 8 11 14 21 19 10 6 21 9 33 9 23 0 43-7 62-20 18-13 32-31 42-54 9-23 14-48 14-77 0-22-5-42-17-61-11-19-27-35-49-47-21-12-46-18-73-18-20 0-38 3-56 9-17 5-32 12-44 22-12 9-22 19-31 31-9 12-15 24-19 37-4 13-6 26-6 38 0 20 4 38 11 53 8 15 19 25 34 31 5 3 9 1 10-5 1-2 2-5 3-9 1-5 2-8 2-9 1-4 0-8-3-12-10-12-15-26-15-43 0-29 10-54 30-74 20-21 46-31 78-31 29 0 51 8 68 23 16 16 24 36 24 61 0 32-7 60-20 83-13 22-30 34-50 34-12 0-21-5-28-13-7-8-9-18-7-30 2-6 4-15 8-26 4-12 6-21 9-30 2-8 3-16 3-21 0-10-3-18-8-24-5-6-12-10-22-10-12 0-22 6-30 17-8 11-12 24-12 40 0 14 2 26 7 35l-28 120c-4 13-5 30-4 50-39-17-71-44-95-80-24-36-36-77-36-121 0-40 9-77 29-110 20-34 46-60 80-80 33-20 70-29 110-29 40 0 77 9 110 29 34 20 60 46 80 80 20 33 29 70 29 110z"/>
    </symbol>
  
    <symbol id="icon-google-plus" viewBox="0 0 512 512">
      <path d="m228 227c0 7 3 14 9 21 7 6 14 13 23 19 8 6 17 13 25 21 9 8 16 18 22 30 7 12 10 25 10 40 0 17-5 34-14 50-14 23-34 40-60 51-27 11-55 16-86 16-25 0-48-4-70-11-22-8-38-21-49-40-7-11-11-24-11-37 0-16 5-30 13-43 9-13 20-24 34-33 25-15 63-25 115-28-6-8-10-15-13-22-3-6-5-13-5-20 0-7 2-15 6-25-8 1-15 1-19 1-28 0-52-9-71-27-20-19-29-42-29-70 0-16 3-31 10-45 7-15 16-28 28-38 15-12 32-22 52-28 21-6 41-9 63-9l119 0-39 25-38 0c14 12 25 25 32 38 7 13 11 29 11 46 0 14-2 26-7 37-5 11-10 20-17 26-6 7-13 13-20 19-6 6-12 11-17 18-4 6-7 12-7 18z m-41-27c7 0 14-2 22-5 7-3 14-7 19-12 10-11 15-26 15-46 0-11-2-23-5-35-3-13-8-25-14-37-6-12-14-22-24-30-10-8-21-12-33-12-8 0-16 2-24 6-8 4-14 9-19 15-9 11-13 26-13 46 0 8 1 18 3 28 2 9 5 19 9 29 4 10 9 19 15 26 5 8 13 15 21 20 8 5 18 7 28 7z m0 249c11 0 22-1 32-3 10-3 20-6 28-11 9-5 16-12 21-21 5-9 8-20 8-31 0-5-1-10-2-14-1-5-3-9-4-12-2-4-4-8-8-12-4-5-6-8-8-10-2-2-6-6-11-10-6-5-9-7-11-8-1-2-5-4-12-9-6-5-9-7-10-7-3-1-8-1-14-1-10 0-20 1-30 2-10 1-20 4-30 7-11 4-20 8-28 13-8 6-15 13-20 22-5 8-7 18-7 30 0 13 3 25 10 35 6 10 15 18 26 24 10 5 22 10 34 12 12 3 24 4 36 4z m232-250l60 0 0 31-60 0 0 63-30 0 0-63-61 0 0-31 61 0 0-62 30 0z"/>
    </symbol>
  
    <symbol id="icon-dribbble" viewBox="0 0 512 512">
      <path d="m329 429c-8-46-21-94-40-143l0 0-1 1c-3 1-7 2-12 4-5 2-15 7-29 14-14 8-27 15-39 24-12 8-25 19-38 32-13 14-22 28-29 43l-4-3c35 28 74 42 119 42 25 0 50-5 73-14z m-53-174c-4-9-9-20-15-32-59 18-123 27-192 27 0 1 0 3 0 6 0 24 4 46 12 68 9 21 20 40 36 57 9-17 21-33 35-47 14-15 27-27 41-36 13-9 25-17 37-23 12-7 21-11 28-14l11-4c1 0 2 0 4-1 1 0 3 0 3-1z m-30-60c-23-41-46-77-70-108-26 12-49 30-67 53-18 23-30 49-36 77 57 0 115-7 173-22z m195 91c-40-12-79-14-117-9 17 46 29 91 37 134 21-14 39-32 53-54 14-22 23-45 27-71z m-230-212c0 0 0 0 0 0 0 0 0 0 0 0z m169 41c-36-31-77-46-124-46-14 0-29 1-44 5 25 32 48 69 70 109 13-5 26-11 37-17 12-7 21-13 28-18 6-5 13-10 18-16 6-6 10-10 11-12z m63 139c0-44-14-83-42-117l0 0c-2 2-4 5-6 7-2 3-6 7-12 13-7 6-13 12-21 17-7 6-16 12-28 19-12 7-25 13-38 18 5 10 9 19 13 27 0 1 1 3 2 5 1 2 1 4 2 5 7-1 14-2 21-2 7 0 14-1 21-1 7 0 13 1 20 1 6 0 12 1 18 1 6 0 11 1 16 2 5 0 10 1 14 1 4 1 8 2 10 2 3 1 6 1 8 1z m32 2c0 40-9 77-29 110-20 34-46 60-80 80-33 20-70 29-110 29-40 0-77-9-110-29-34-20-60-46-80-80-20-33-29-70-29-110 0-40 9-77 29-110 20-34 46-60 80-80 33-20 70-29 110-29 40 0 77 9 110 29 34 20 60 46 80 80 20 33 29 70 29 110z"/>
    </symbol>
  
    <symbol id="icon-linkedin" viewBox="0 0 512 512">
      <path d="m136 179l0 283-94 0 0-283z m6-88c0 14-4 26-14 35-10 9-23 14-39 14l0 0c-16 0-29-5-38-14-10-9-14-21-14-35 0-14 4-26 14-35 10-9 23-14 39-14 16 0 28 5 38 14 9 9 14 21 14 35z m333 208l0 163-94 0 0-152c0-20-3-35-11-47-8-11-20-17-36-17-12 0-22 4-30 10-9 7-15 15-19 25-2 5-3 13-3 23l0 158-94 0c1-76 1-138 1-185 0-47 0-76 0-85l-1-13 94 0 0 41 0 0c4-6 7-12 11-16 4-5 10-10 17-15 6-5 15-10 24-13 10-3 21-4 33-4 33 0 59 11 79 32 20 22 29 54 29 95z"/>
    </symbol>
  
</svg>
